<svg xmlns="http://www.w3.org/2000/svg" id="Capa_1" version="1.1" viewBox="31.04 43.13 1092.94 947.21">
  <!-- Generator: Adobe Illustrator 29.1.0, SVG Export Plug-In . SVG Version: 2.1.0 Build 142)  -->
  <defs>
    <style>
      .st0 {
        fill: #fff;
      }
    </style>
  </defs>
  <path class="st0" d="M1086.7,719.9c-5.3-5.8-53.7-57.5-112.9-44.2-32.7,7.4-62.9,33.4-71.2,63.8-2,7.3-6.3,23,2.5,36.8,6.2,9.8,19.2,18.8,31.9,17.2,21.3-2.7,23.4-32.5,46.6-36.8,14.2-2.7,26.7,6.2,31.9,9.8,22.5,15.9,28.3,46.3,24.5,68.7-.6,3.6-5.3,29.2-27,46.6-40,32.2-114.3,18.1-154.6-22.1-21.1-21-28-44.2-36.8-73.6-3.6-12-12.4-44.3-9.8-135,.8-26.7,2.6-62.7,7.4-105.5,2.1-25.4,4.5-62.6,4.9-108,.4-46.2.5-69.9-4.9-95.7-4.7-22.6-14.4-66.2-49.1-108-11.8-14.2-33.5-36.6-66.3-54-41.1-21.8-53.3-10.9-93.2-29.4-45.2-20.9-46.6-42.6-90.8-71.2-17.6-11.4-42.5-24.2-76.6-32.8-21.2-5.3-43.6-4.4-64.2,3-35,12.4-80.8,34.4-124.2,74-25,22.8-114.8,104.7-98.1,184,1,4.8,2.2,8.1,3.3,11,22.3,64.2,89.7,101.3,141.5,121.5,82.9,37.2,148.2,74.7,193.9,103,88.7,55.2,135.7,85,177.4,142.7,41.4,57.2,58,114.9,65.5,151.7,28.3,84.7,99.7,144.7,181.6,152.1,65.5,6,154.5-19.8,188.9-95.7,24.6-54.3,20.7-127.1-22.1-174.2h0ZM673.2,391.1c-12.9,0-23.3-10.4-23.3-23.3s10.4-23.3,23.3-23.3,23.3,10.4,23.3,23.3-10.4,23.3-23.3,23.3Z"/>
  <path class="st0" d="M171.5,475c12.7-10.9,30.9-12.4,45.2-3.8,79.7,47.4,146.6,82.3,195.3,106.4,76.1,37.7,121.3,55.7,159.5,108,31.5,43,47.4,101.3,51.5,115.3,4.2,14.2,7.7,34.8,14.7,76.1,5.5,32.6,6.8,45.5,0,58.9-8.8,17.4-26.3,25.7-36.7,29.4h-131.6c-20.9,0-38.2-16.5-39-37.4-.6-17.1-3-36.9-8.7-58.3-8.6-31.8-24.8-92-81-125.1-13.6-8.1-27.5-13.2-40.8-16.5-18.5-4.5-29.6,19.7-14,30.7.3.2.5.4.8.5,6.5,4.7,31.2,22.8,51.5,51.5,26.1,37,34.7,77.4,37,107.8,1.7,22.6-16.2,41.9-38.9,41.9H64.2c-10.5,0-19.5-7.5-21.5-17.8-7.4-39.1-13.6-90.9-11.1-151.5,3.9-93.8,26.6-157.3,31.9-171.8,17.7-47.9,59.1-102.4,107.9-144.2h0Z"/>
</svg>